<svg width="100" height="132" viewBox="0 0 100 132" fill="none" xmlns="http://www.w3.org/2000/svg">
<g id="Group">
<path id="Vector" d="M23.0033 5.19325L21.5641 10.5902H14.8479C6.09278 10.5902 2.61474 11.6696 3.09447 14.0683C3.33433 15.2676 6.33265 16.8267 11.6097 18.2659L19.6452 20.6645V31.6983C19.6452 49.5683 24.5624 49.3284 29.1198 31.3385L31.1587 23.1831L38.3546 22.9433C48.9087 22.4635 53.2263 21.5041 53.2263 19.5851C53.2263 17.3064 50.3479 15.8672 41.8327 14.1882C30.7989 12.0294 30.7989 12.0294 29.8394 7.2321C28.1604 -1.52297 25.0421 -2.48243 23.0033 5.19325Z" fill="white"/>
<path id="Vector_2" d="M70.7365 37.2153C70.2567 40.0937 69.8969 45.6106 69.6571 49.5684L69.4172 56.6444L61.6216 61.0819C57.304 63.4805 53.826 66.239 53.826 67.0785C53.826 68.8775 54.0659 68.8775 64.6199 67.6782L71.8159 66.9586L74.2145 71.9957C75.8936 75.4738 77.4527 77.1528 79.0118 77.1528C81.0507 77.1528 81.4105 76.1934 81.7703 69.5971L82.1301 62.1613L88.3665 59.043C94.603 55.9248 100 51.7271 100 50.0481C100 47.8893 94.723 47.7694 88.0067 49.6883C84.049 50.7677 80.3311 51.3673 79.9713 50.8876C79.4915 50.4079 78.0524 46.2103 76.6132 41.5329C73.7348 31.3386 71.6959 29.8994 70.7365 37.2153Z" fill="white"/>
<path id="Vector_3" d="M18.8057 71.9955C18.326 72.8351 16.527 78.9516 14.8479 85.5479L11.8496 97.5411L6.69251 98.2607C-0.623372 99.2202 -2.06256 101.139 2.9746 103.418C5.25332 104.377 7.89183 105.457 8.97123 105.697C10.5303 106.176 11.13 108.695 11.7297 117.09C12.2094 123.447 13.2888 128.844 14.3682 130.163C16.0472 132.202 16.0472 132.202 17.7263 130.043C18.6858 128.844 19.8851 124.766 20.2449 121.048C21.9239 105.697 21.5641 106.056 31.2787 104.737C45.7905 102.698 46.2702 98.5006 32.2381 96.8215C27.9206 96.2219 23.8429 95.5023 23.2432 95.1425C22.5236 94.6628 22.0439 89.3857 22.0439 83.1492C22.0439 72.4753 20.9645 68.7573 18.8057 71.9955Z" fill="white"/>
</g>
</svg>
