<svg width="18" height="22" viewBox="0 0 18 22" fill="none" xmlns="http://www.w3.org/2000/svg">
<rect width="18" height="22" fill="#D7D7D7"/>
<g clip-path="url(#clip0_25_116)">
<rect width="1920" height="8395" transform="translate(-327 -45)" fill="white"/>
<circle cx="9" cy="10.5" r="24" fill="#FFCC7E"/>
<g clip-path="url(#clip1_25_116)">
<path d="M11.9608 0.5V8.51501C9.99783 8.26896 8.00437 8.26896 6.04137 8.51501V0.5H0V16.4482C2.54312 14.6499 5.72143 13.6681 8.99984 13.6681C12.2783 13.6681 15.4566 14.6499 17.9997 16.4482V0.5H11.9608Z" fill="#161616"/>
<path d="M11.9608 17.353V21.4997H18.0009V21.4294C16.6467 19.4605 14.491 18.0056 11.9608 17.353Z" fill="#161616"/>
<path d="M0 21.4294V21.4997H6.03885V17.353C3.50918 18.0059 1.3539 19.4607 0 21.4294Z" fill="#161616"/>
</g>
</g>
<defs>
<clipPath id="clip0_25_116">
<rect width="1920" height="8395" fill="white" transform="translate(-327 -45)"/>
</clipPath>
<clipPath id="clip1_25_116">
<rect width="18" height="21" fill="white" transform="translate(0 0.5)"/>
</clipPath>
</defs>
</svg>
